<?xml version="1.0" encoding="utf-8"?>
<!DOCTYPE svg PUBLIC "-//W3C//DTD SVG 1.1//EN" "http://www.w3.org/Graphics/SVG/1.1/DTD/svg11.dtd">
<svg style="width:308px;height:308px;" version="1.1" id="图形" xmlns="http://www.w3.org/2000/svg" xmlns:xlink="http://www.w3.org/1999/xlink" x="0px" y="0px" width="1024px" height="1024px" viewBox="0 0 1024 1024" enable-background="new 0 0 1024 1024" xml:space="preserve">
  <path class="svgpath" data-index="path_0" fill="#3c8dbc" d="M353.866 253.145c-54.385 0-98.445 43.953-98.445 98.337 0 54.275 44.12 98.337 98.445 98.337 54.33 0 98.445-44.062 98.445-98.337C452.312 297.21 408.251 253.145 353.866 253.145z" />
<path class="svgpath" data-index="path_1" fill="#3c8dbc" d="M770.065 576.516c38.41 0 73.953 12.076 103.226 32.516l0-433.75c-0.054-34.888-28.393-63.228-63.281-63.282L162.378 112c-34.942 0-63.281 28.339-63.281 63.282l0 647.63c0 34.943 28.339 63.282 63.281 63.282l481.379 0c-33.496-32.792-54.338-78.455-54.338-129.032C589.419 657.394 670.298 576.516 770.065 576.516zM374.125 546.738c-13.598-10.047-32.545-7.918-43.517 4.858l-166.48 218.461L164.128 176.978l644.243 0 0 161.398-13.38-11.902c-13.592-10.047-32.543-7.914-43.515 4.862l-250.35 328.369L374.125 546.738z" />
<path class="svgpath" data-index="path_2" fill="#3c8dbc" d="M770.065 602.323c-85.515 0-154.839 69.323-154.839 154.839S684.549 912 770.065 912s154.839-69.323 154.839-154.839S855.58 602.323 770.065 602.323zM855.978 752.84c-2.934 2.882-6.79 4.321-10.643 4.321-3.853 0-7.709-1.445-10.643-4.321l-49.573-48.561L785.119 845.64c0 8.148-6.738 14.747-15.055 14.747s-15.055-6.599-15.055-14.747L755.009 704.279l-49.572 48.561c-5.878 5.759-15.408 5.759-21.286 0-5.88-5.759-5.88-15.093 0-20.852l75.269-73.734c5.878-5.758 15.409-5.758 21.287 0l75.269 73.734C861.857 737.747 861.857 747.081 855.978 752.84z" />

</svg>
